# xmcd
#
# Track frame offsets:
#	150
#	22966
#	37872
#	53780
#	73905
#	91138
#	106792
#	123414
#	140637
#	160271
#	176033
#	194286
#	210199
#	228082
#	245229
#	263976
#	281965
#	298918
#	313749
#	331754
#
# Disc length: 4640 seconds
#
# Revision: 1
# Processed by: cddbd v1.5.1PL0 Copyright (c) Steve Scherf et al.
# Submitted via: audiograbber 1.83.01
#
DISCID=26121e14
DTITLE=Various Artist - The Best MTV Hits. (2002)
DYEAR=1900
DGENRE=
TTITLE0=Darren Hayes. - Insatible.
TTITLE1=Kylie Minogue. - In Your Eyes.
TTITLE2=Modern Talking. - Ready For The Victory.
TTITLE3=George Michael. - Freeek!
TTITLE4=Britney Spears. - I'm Not A Girl, Not Yet A Woman.
TTITLE5=Enrigue Iglesias. - Escape.
TTITLE6=Shakira. - Underneath Your Clothers.
TTITLE7=Blue. - Fly By III.
TTITLE8=Celine Dion. - A New Day Has Come. (Ric Wake Radio Mix)
TTITLE9=Brainstorm. - Waterfall.
TTITLE10=Sarah Connor. - From Sarah With Love. (Kayrob Dance Mix)
TTITLE11=Westlife. - World Of Our Own.
TTITLE12=Lighthouse Family. - Run.
TTITLE13=Modjo. - No More Tears.
TTITLE14=Pet Shop Boys. - Home And Dry.
TTITLE15=Chemical Brothers. - Star Guitar.
TTITLE16=Jamiroquai. - Love Foolosophy.
TTITLE17=Robbie Williams. - Mr. Bojangles.
TTITLE18=Cher. - This Is A Song For The Lonely.
TTITLE19=Andreas Johnson. - Shine.
EXTD=
EXTT0=
EXTT1=
EXTT2=
EXTT3=
EXTT4=
EXTT5=
EXTT6=
EXTT7=
EXTT8=
EXTT9=
EXTT10=
EXTT11=
EXTT12=
EXTT13=
EXTT14=
EXTT15=
EXTT16=
EXTT17=
EXTT18=
EXTT19=
PLAYORDER=
